<svg width="50" height="50" viewBox="0 0 40 40" fill="none" xmlns="http://www.w3.org/2000/svg">
<circle cx="20" cy="20" r="20" fill="#5ECE7B"/>
<g clip-path="url(#clip0_1_5)">
<path d="M30.575 14.8455C30.1115 14.2793 29.3907 13.9351 28.6448 13.9351H12.972L12.4834 12.1143C12.1999 11.0559 11.2227 10.3176 10.0897 10.3176H7.4649C7.02759 10.3176 6.66667 10.6617 6.66667 11.0809C6.66667 11.4991 7.02656 11.8442 7.4649 11.8442H10.0897C10.4758 11.8442 10.8105 12.0903 10.9131 12.4595L14.0526 24.4206C14.3361 25.479 15.3133 26.2173 16.4463 26.2173H26.7145C27.8465 26.2173 28.8508 25.479 29.1082 24.4206L31.0384 16.8403C31.2183 16.1501 31.0645 15.4118 30.5749 14.8456L30.575 14.8455ZM29.4691 16.4942L27.5389 24.0744C27.4364 24.4435 27.1016 24.6896 26.7156 24.6896H16.4463C16.0603 24.6896 15.7255 24.4435 15.623 24.0744L13.3841 15.4859H28.6459C28.9033 15.4859 29.1606 15.6089 29.3155 15.806C29.4693 16.0021 29.5457 16.2482 29.4693 16.4944L29.4691 16.4942Z" fill="white"/>
<path d="M16.9876 27.1996C15.5208 27.1996 14.3115 28.3561 14.3115 29.7586C14.3115 31.1611 15.5209 32.3176 16.9876 32.3176C18.4543 32.3185 19.6636 31.1621 19.6636 29.7593C19.6636 28.3566 18.4542 27.1994 16.9876 27.1994V27.1996ZM16.9876 30.7681C16.3954 30.7681 15.932 30.3249 15.932 29.7587C15.932 29.1925 16.3954 28.7493 16.9876 28.7493C17.5797 28.7493 18.0432 29.1925 18.0432 29.7587C18.0422 30.3009 17.5536 30.7681 16.9876 30.7681Z" fill="white"/>
<path d="M25.8403 27.1996C24.3736 27.1996 23.1643 28.356 23.1643 29.7585C23.1643 31.161 24.3737 32.3175 25.8403 32.3175C27.307 32.3175 28.5164 31.161 28.5164 29.7585C28.4912 28.3569 27.307 27.1996 25.8403 27.1996ZM25.8403 30.7681C25.2482 30.7681 24.7847 30.3249 24.7847 29.7586C24.7847 29.1924 25.2482 28.7492 25.8403 28.7492C26.4325 28.7492 26.8959 29.1924 26.8959 29.7586C26.8959 30.3008 26.4063 30.7681 25.8403 30.7681Z" fill="white"/>
</g>
<defs>
<clipPath id="clip0_1_5">
<rect width="24.4444" height="24.4444" fill="white" transform="translate(6.66667 8.88889)"/>
</clipPath>
</defs>
</svg>
